<svg xmlns="http://www.w3.org/2000/svg" viewBox="0 0 32 32" role="img" aria-hidden="true">
  <defs>
    <linearGradient id="a" x1="0%" y1="0%" x2="100%" y2="100%">
      <stop offset="0%" stop-color="#fbbf24"/>
      <stop offset="100%" stop-color="#b45309"/>
    </linearGradient>
  </defs>
  <rect width="32" height="32" rx="8" fill="url(#a)"/>
  <path fill="#fff" fill-opacity="0.95" d="M7 9h8c1.1 0 2 .9 2 2v12H9c-1.1 0-2-.9-2-2V9zm10 0h8v12c0 1.1-.9 2-2 2h-8V9zm2 3.5V22h4c.6 0 1-.4 1-1v-7.5c0-.6-.4-1-1-1h-4zm-8 0H9c-.6 0-1 .4-1 1V21c0 .6.4 1 1 1h4v-9.5z"/>
</svg>
